<svg width="190" height="50" viewBox="0 0 190 50" fill="none" xmlns="http://www.w3.org/2000/svg">
<path d="M0 25C0 11.1929 11.1929 0 25 0H165C178.807 0 190 11.1929 190 25C190 38.8071 178.807 50 165 50H25C11.1929 50 0 38.8071 0 25Z" fill="#EF2917"/>
<path d="M39.8228 39L30.3428 25.36L34.5428 22.76L45.7028 39H39.8228ZM21.3028 39V11H26.4228V39H21.3028ZM24.8628 27.2V22.72H34.3028V27.2H24.8628ZM35.0228 25.6L30.2628 24.96L39.8228 11H45.3428L35.0228 25.6ZM50.3191 47.04C49.2791 47.04 48.2391 46.8667 47.1991 46.52C46.1591 46.1733 45.2924 45.6933 44.5991 45.08L46.5991 41.4C47.1057 41.8533 47.6791 42.2133 48.3191 42.48C48.9591 42.7467 49.6124 42.88 50.2791 42.88C51.1857 42.88 51.9191 42.6533 52.4791 42.2C53.0391 41.7467 53.5591 40.9867 54.0391 39.92L55.2791 37.12L55.6791 36.52L63.7591 17.64H68.5591L58.5591 40.72C57.8924 42.32 57.1457 43.5867 56.3191 44.52C55.5191 45.4533 54.6124 46.1067 53.5991 46.48C52.6124 46.8533 51.5191 47.04 50.3191 47.04ZM54.7191 39.76L45.0791 17.64H50.2791L58.1191 36.08L54.7191 39.76ZM72.0319 39V17.64H92.5119V39H87.5519V20.72L88.7119 21.88H75.8719L77.0319 20.72V39H72.0319ZM99.2584 39V17.64H104.258V31.72L116.058 17.64H120.618V39H115.618V24.92L103.858 39H99.2584ZM131.784 39V20.68L132.944 21.88H124.264V17.64H144.264V21.88H135.624L136.784 20.68V39H131.784ZM147.891 39V17.64H152.891V31.72L164.691 17.64H169.251V39H164.251V24.92L152.491 39H147.891Z" fill="white"/>
</svg>
