<svg width="638" height="108" viewBox="0 0 638 108" fill="none" xmlns="http://www.w3.org/2000/svg">
<g filter="url(#filter0_d_88_19)">
<rect x="4.00012" width="630" height="100" rx="50" fill="#EF2917"/>
<rect x="4.50012" y="0.5" width="629" height="99" rx="49.5" stroke="black"/>
</g>
<path d="M189.566 64.55L191.666 59.8C193.166 60.8333 194.8 61.6333 196.566 62.2C198.366 62.7333 200.15 63.0167 201.916 63.05C203.683 63.0833 205.283 62.8833 206.716 62.45C208.183 62.0167 209.35 61.3667 210.216 60.5C211.083 59.6333 211.516 58.55 211.516 57.25C211.516 55.6833 210.866 54.5167 209.566 53.75C208.3 52.95 206.566 52.55 204.366 52.55H196.216V47.45H203.866C205.833 47.45 207.35 47.05 208.416 46.25C209.516 45.45 210.066 44.3667 210.066 43C210.066 41.8667 209.7 40.9333 208.966 40.2C208.266 39.4667 207.3 38.9167 206.066 38.55C204.866 38.1833 203.5 38.0167 201.966 38.05C200.466 38.05 198.9 38.2833 197.266 38.75C195.633 39.1833 194.083 39.8333 192.616 40.7L190.566 35.45C192.766 34.2833 195.066 33.4667 197.466 33C199.9 32.5333 202.25 32.4 204.516 32.6C206.783 32.8 208.816 33.3167 210.616 34.15C212.45 34.9833 213.916 36.0833 215.016 37.45C216.116 38.7833 216.666 40.3667 216.666 42.2C216.666 43.8667 216.216 45.35 215.316 46.65C214.45 47.9167 213.25 48.9 211.716 49.6C210.183 50.3 208.4 50.65 206.366 50.65L206.616 49.05C208.916 49.05 210.916 49.45 212.616 50.25C214.35 51.0167 215.683 52.0833 216.616 53.45C217.583 54.8167 218.066 56.4 218.066 58.2C218.066 59.9 217.633 61.4167 216.766 62.75C215.9 64.05 214.716 65.15 213.216 66.05C211.716 66.9167 210 67.5667 208.066 68C206.133 68.4 204.1 68.55 201.966 68.45C199.833 68.35 197.7 67.9833 195.566 67.35C193.466 66.7167 191.466 65.7833 189.566 64.55ZM240.987 68V62.6L240.637 61.45V52C240.637 50.1667 240.087 48.75 238.987 47.75C237.887 46.7167 236.22 46.2 233.987 46.2C232.487 46.2 231.004 46.4333 229.537 46.9C228.104 47.3667 226.887 48.0167 225.887 48.85L223.437 44.3C224.87 43.2 226.57 42.3833 228.537 41.85C230.537 41.2833 232.604 41 234.737 41C238.604 41 241.587 41.9333 243.687 43.8C245.82 45.6333 246.887 48.4833 246.887 52.35V68H240.987ZM232.587 68.35C230.587 68.35 228.837 68.0167 227.337 67.35C225.837 66.65 224.67 65.7 223.837 64.5C223.037 63.2667 222.637 61.8833 222.637 60.35C222.637 58.85 222.987 57.5 223.687 56.3C224.42 55.1 225.604 54.15 227.237 53.45C228.87 52.75 231.037 52.4 233.737 52.4H241.487V56.55H234.187C232.054 56.55 230.62 56.9 229.887 57.6C229.154 58.2667 228.787 59.1 228.787 60.1C228.787 61.2333 229.237 62.1333 230.137 62.8C231.037 63.4667 232.287 63.8 233.887 63.8C235.42 63.8 236.787 63.45 237.987 62.75C239.22 62.05 240.104 61.0167 240.637 59.65L241.687 63.4C241.087 64.9667 240.004 66.1833 238.437 67.05C236.904 67.9167 234.954 68.35 232.587 68.35ZM254.621 68V41.3H261.171L271.921 60.25H269.321L280.621 41.3H286.471L286.521 68H280.871V48L281.871 48.65L271.871 65.2H269.171L259.121 48.2L260.321 47.9V68H254.621ZM306.804 68.35C304.071 68.35 301.638 67.7667 299.504 66.6C297.371 65.4 295.688 63.7667 294.454 61.7C293.221 59.6333 292.604 57.2833 292.604 54.65C292.604 51.9833 293.221 49.6333 294.454 47.6C295.688 45.5333 297.371 43.9167 299.504 42.75C301.638 41.5833 304.071 41 306.804 41C309.571 41 312.021 41.5833 314.154 42.75C316.321 43.9167 318.004 45.5167 319.204 47.55C320.438 49.5833 321.054 51.95 321.054 54.65C321.054 57.2833 320.438 59.6333 319.204 61.7C318.004 63.7667 316.321 65.4 314.154 66.6C312.021 67.7667 309.571 68.35 306.804 68.35ZM306.804 63C308.338 63 309.704 62.6667 310.904 62C312.104 61.3333 313.038 60.3667 313.704 59.1C314.404 57.8333 314.754 56.35 314.754 54.65C314.754 52.9167 314.404 51.4333 313.704 50.2C313.038 48.9333 312.104 47.9667 310.904 47.3C309.704 46.6333 308.354 46.3 306.854 46.3C305.321 46.3 303.954 46.6333 302.754 47.3C301.588 47.9667 300.654 48.9333 299.954 50.2C299.254 51.4333 298.904 52.9167 298.904 54.65C298.904 56.35 299.254 57.8333 299.954 59.1C300.654 60.3667 301.588 61.3333 302.754 62C303.954 62.6667 305.304 63 306.804 63ZM327.228 68V41.3H340.278C343.512 41.3 346.045 41.9 347.878 43.1C349.745 44.3 350.678 46 350.678 48.2C350.678 50.3667 349.812 52.0667 348.078 53.3C346.345 54.5 344.045 55.1 341.178 55.1L341.928 53.55C345.162 53.55 347.562 54.15 349.128 55.35C350.728 56.5167 351.528 58.2333 351.528 60.5C351.528 62.8667 350.645 64.7167 348.878 66.05C347.112 67.35 344.428 68 340.828 68H327.228ZM333.178 63.45H340.328C342.028 63.45 343.312 63.1833 344.178 62.65C345.045 62.0833 345.478 61.2333 345.478 60.1C345.478 58.9 345.078 58.0167 344.278 57.45C343.478 56.8833 342.228 56.6 340.528 56.6H333.178V63.45ZM333.178 52.45H339.728C341.328 52.45 342.528 52.1667 343.328 51.6C344.162 51 344.578 50.1667 344.578 49.1C344.578 48 344.162 47.1833 343.328 46.65C342.528 46.1167 341.328 45.85 339.728 45.85H333.178V52.45ZM358.185 68V41.3H364.435V58.9L379.185 41.3H384.885V68H378.635V50.4L363.935 68H358.185ZM398.843 68V45.1L400.293 46.6H389.443V41.3H414.443V46.6H403.643L405.093 45.1V68H398.843ZM418.976 68V41.3H425.226V58.9L439.976 41.3H445.676V68H439.426V50.4L424.726 68H418.976Z" fill="white"/>
<defs>
<filter id="filter0_d_88_19" x="0.00012207" y="0" width="638" height="108" filterUnits="userSpaceOnUse" color-interpolation-filters="sRGB">
<feFlood flood-opacity="0" result="BackgroundImageFix"/>
<feColorMatrix in="SourceAlpha" type="matrix" values="0 0 0 0 0 0 0 0 0 0 0 0 0 0 0 0 0 0 127 0" result="hardAlpha"/>
<feOffset dy="4"/>
<feGaussianBlur stdDeviation="2"/>
<feComposite in2="hardAlpha" operator="out"/>
<feColorMatrix type="matrix" values="0 0 0 0 0 0 0 0 0 0 0 0 0 0 0 0 0 0 0.25 0"/>
<feBlend mode="normal" in2="BackgroundImageFix" result="effect1_dropShadow_88_19"/>
<feBlend mode="normal" in="SourceGraphic" in2="effect1_dropShadow_88_19" result="shape"/>
</filter>
</defs>
</svg>
