<svg width="361" height="121" viewBox="0 0 361 121" fill="none" xmlns="http://www.w3.org/2000/svg">
<g filter="url(#filter0_d_37_137)">
<rect x="4" width="353" height="113" rx="50" fill="#EF2917"/>
<rect x="4.5" y="0.5" width="352" height="112" rx="49.5" stroke="black"/>
</g>
<path d="M76.953 68.24L78.633 64.44C79.833 65.2667 81.1396 65.9067 82.553 66.36C83.993 66.7867 85.4196 67.0133 86.833 67.04C88.2463 67.0667 89.5263 66.9067 90.673 66.56C91.8463 66.2133 92.7796 65.6933 93.473 65C94.1663 64.3067 94.513 63.44 94.513 62.4C94.513 61.1467 93.993 60.2133 92.953 59.6C91.9396 58.96 90.553 58.64 88.793 58.64H82.273V54.56H88.393C89.9663 54.56 91.1796 54.24 92.033 53.6C92.913 52.96 93.353 52.0933 93.353 51C93.353 50.0933 93.0596 49.3467 92.473 48.76C91.913 48.1733 91.1396 47.7333 90.153 47.44C89.193 47.1467 88.0996 47.0133 86.873 47.04C85.673 47.04 84.4196 47.2267 83.113 47.6C81.8063 47.9467 80.5663 48.4667 79.393 49.16L77.753 44.96C79.513 44.0267 81.353 43.3733 83.273 43C85.2196 42.6267 87.0996 42.52 88.913 42.68C90.7263 42.84 92.353 43.2533 93.793 43.92C95.2596 44.5867 96.433 45.4667 97.313 46.56C98.193 47.6267 98.633 48.8933 98.633 50.36C98.633 51.6933 98.273 52.88 97.553 53.92C96.8596 54.9333 95.8996 55.72 94.673 56.28C93.4463 56.84 92.0196 57.12 90.393 57.12L90.593 55.84C92.433 55.84 94.033 56.16 95.393 56.8C96.7796 57.4133 97.8463 58.2667 98.593 59.36C99.3663 60.4533 99.753 61.72 99.753 63.16C99.753 64.52 99.4063 65.7333 98.713 66.8C98.0196 67.84 97.073 68.72 95.873 69.44C94.673 70.1333 93.2996 70.6533 91.753 71C90.2063 71.32 88.5796 71.44 86.873 71.36C85.1663 71.28 83.4596 70.9867 81.753 70.48C80.073 69.9733 78.473 69.2267 76.953 68.24ZM118.09 71V66.68L117.81 65.76V58.2C117.81 56.7333 117.37 55.6 116.49 54.8C115.61 53.9733 114.276 53.56 112.49 53.56C111.29 53.56 110.103 53.7467 108.93 54.12C107.783 54.4933 106.81 55.0133 106.01 55.68L104.05 52.04C105.196 51.16 106.556 50.5067 108.13 50.08C109.73 49.6267 111.383 49.4 113.09 49.4C116.183 49.4 118.57 50.1467 120.25 51.64C121.956 53.1067 122.81 55.3867 122.81 58.48V71H118.09ZM111.37 71.28C109.77 71.28 108.37 71.0133 107.17 70.48C105.97 69.92 105.036 69.16 104.37 68.2C103.73 67.2133 103.41 66.1067 103.41 64.88C103.41 63.68 103.69 62.6 104.25 61.64C104.836 60.68 105.783 59.92 107.09 59.36C108.396 58.8 110.13 58.52 112.29 58.52H118.49V61.84H112.65C110.943 61.84 109.796 62.12 109.21 62.68C108.623 63.2133 108.33 63.88 108.33 64.68C108.33 65.5867 108.69 66.3067 109.41 66.84C110.13 67.3733 111.13 67.64 112.41 67.64C113.636 67.64 114.73 67.36 115.69 66.8C116.676 66.24 117.383 65.4133 117.81 64.32L118.65 67.32C118.17 68.5733 117.303 69.5467 116.05 70.24C114.823 70.9333 113.263 71.28 111.37 71.28ZM128.997 71V49.64H134.237L142.837 64.8H140.757L149.797 49.64H154.477L154.517 71H149.997V55L150.797 55.52L142.797 68.76H140.637L132.597 55.16L133.557 54.92V71H128.997ZM170.743 71.28C168.557 71.28 166.61 70.8133 164.903 69.88C163.197 68.92 161.85 67.6133 160.863 65.96C159.877 64.3067 159.383 62.4267 159.383 60.32C159.383 58.1867 159.877 56.3067 160.863 54.68C161.85 53.0267 163.197 51.7333 164.903 50.8C166.61 49.8667 168.557 49.4 170.743 49.4C172.957 49.4 174.917 49.8667 176.623 50.8C178.357 51.7333 179.703 53.0133 180.663 54.64C181.65 56.2667 182.143 58.16 182.143 60.32C182.143 62.4267 181.65 64.3067 180.663 65.96C179.703 67.6133 178.357 68.92 176.623 69.88C174.917 70.8133 172.957 71.28 170.743 71.28ZM170.743 67C171.97 67 173.063 66.7333 174.023 66.2C174.983 65.6667 175.73 64.8933 176.263 63.88C176.823 62.8667 177.103 61.68 177.103 60.32C177.103 58.9333 176.823 57.7467 176.263 56.76C175.73 55.7467 174.983 54.9733 174.023 54.44C173.063 53.9067 171.983 53.64 170.783 53.64C169.557 53.64 168.463 53.9067 167.503 54.44C166.57 54.9733 165.823 55.7467 165.263 56.76C164.703 57.7467 164.423 58.9333 164.423 60.32C164.423 61.68 164.703 62.8667 165.263 63.88C165.823 64.8933 166.57 65.6667 167.503 66.2C168.463 66.7333 169.543 67 170.743 67ZM187.083 71V49.64H197.523C200.109 49.64 202.136 50.12 203.603 51.08C205.096 52.04 205.843 53.4 205.843 55.16C205.843 56.8933 205.149 58.2533 203.763 59.24C202.376 60.2 200.536 60.68 198.243 60.68L198.843 59.44C201.429 59.44 203.349 59.92 204.603 60.88C205.883 61.8133 206.523 63.1867 206.523 65C206.523 66.8933 205.816 68.3733 204.403 69.44C202.989 70.48 200.843 71 197.963 71H187.083ZM191.843 67.36H197.563C198.923 67.36 199.949 67.1467 200.643 66.72C201.336 66.2667 201.683 65.5867 201.683 64.68C201.683 63.72 201.363 63.0133 200.723 62.56C200.083 62.1067 199.083 61.88 197.723 61.88H191.843V67.36ZM191.843 58.56H197.083C198.363 58.56 199.323 58.3333 199.963 57.88C200.629 57.4 200.963 56.7333 200.963 55.88C200.963 55 200.629 54.3467 199.963 53.92C199.323 53.4933 198.363 53.28 197.083 53.28H191.843V58.56ZM211.848 71V49.64H216.848V63.72L228.648 49.64H233.208V71H228.208V56.92L216.448 71H211.848ZM244.374 71V52.68L245.534 53.88H236.854V49.64H256.854V53.88H248.214L249.374 52.68V71H244.374ZM260.481 71V49.64H265.481V63.72L277.281 49.64H281.841V71H276.841V56.92L265.081 71H260.481Z" fill="white"/>
<defs>
<filter id="filter0_d_37_137" x="0" y="0" width="361" height="121" filterUnits="userSpaceOnUse" color-interpolation-filters="sRGB">
<feFlood flood-opacity="0" result="BackgroundImageFix"/>
<feColorMatrix in="SourceAlpha" type="matrix" values="0 0 0 0 0 0 0 0 0 0 0 0 0 0 0 0 0 0 127 0" result="hardAlpha"/>
<feOffset dy="4"/>
<feGaussianBlur stdDeviation="2"/>
<feComposite in2="hardAlpha" operator="out"/>
<feColorMatrix type="matrix" values="0 0 0 0 0 0 0 0 0 0 0 0 0 0 0 0 0 0 0.25 0"/>
<feBlend mode="normal" in2="BackgroundImageFix" result="effect1_dropShadow_37_137"/>
<feBlend mode="normal" in="SourceGraphic" in2="effect1_dropShadow_37_137" result="shape"/>
</filter>
</defs>
</svg>
